<?xml version="1.0" encoding="UTF-8" standalone="no"?>
<!DOCTYPE svg PUBLIC "-//W3C//DTD SVG 1.1//EN" "http://www.w3.org/Graphics/SVG/1.1/DTD/svg11.dtd">
<svg width="100%" height="100%" viewBox="0 0 1000 1000" version="1.1" xmlns="http://www.w3.org/2000/svg" xmlns:xlink="http://www.w3.org/1999/xlink" xml:space="preserve" xmlns:serif="http://www.serif.com/" style="fill-rule:evenodd;clip-rule:evenodd;stroke-linejoin:round;stroke-miterlimit:2;">
    <g>
        <g>
            <g id="_x39_9d_logo">
                <g>
                    <g transform="matrix(0.7071,-0.7071,0.7071,0.7071,-215.348,615.966)">
                        <rect x="507.06" y="535.19" width="257.61" height="65.47" style="fill:rgb(105,224,124);"/>
                    </g>
                    <path d="M635.86,385.77L500,521.64L447.21,468.84L400.91,515.14L453.71,567.93L500,614.23L682.16,432.07L635.86,385.77Z" style="fill:white;fill-rule:nonzero;"/>
                    <g transform="matrix(0.7071,-0.7071,0.7071,0.7071,-201.987,391.576)">
                        <rect x="338.94" y="396.21" width="65.47" height="86.79" style="fill:rgb(105,224,124);"/>
                    </g>
                    <g transform="matrix(0.7071,-0.7071,0.7071,0.7071,-294.935,423.83)">
                        <rect x="331.4" y="439.13" width="65.47" height="257.61" style="fill:rgb(105,224,124);"/>
                    </g>
                    <path d="M546.36,432.14L546.3,432.07L614.23,364.14L567.93,317.84L500,385.77L432.07,317.84L385.77,364.14L500.07,478.43L546.36,432.14Z" style="fill:rgb(105,224,124);fill-rule:nonzero;"/>
                </g>
            </g>
        </g>
    </g>
</svg>
