<svg width="24" height="24" viewBox="0 0 24 24" fill="none" xmlns="http://www.w3.org/2000/svg">
<path d="M21.9383 17.4379C21.4508 15.9379 19.9508 15.0754 18.5258 15.4879C17.3633 15.8254 15.8258 16.2754 14.5883 16.6504C14.6633 16.2754 14.5883 15.9379 14.4758 15.6754C14.1383 14.8129 13.1633 14.4379 12.3758 14.4379H8.88828C8.62578 14.4379 8.32578 14.2879 8.06328 14.0254C7.65078 13.6504 7.12578 13.4629 6.60078 13.4629H3.78828C2.51328 13.4629 1.42578 14.5504 1.42578 15.9004V20.3629C1.42578 21.7129 2.51328 22.8379 3.82578 22.8379H7.23828C7.65078 22.8379 8.10078 22.7254 8.47578 22.5004C9.48828 23.0629 10.6133 23.3254 11.7383 23.3254C12.4508 23.3254 13.1258 23.2129 13.7633 23.0254L20.0633 21.1129H20.1008C22.0133 20.3629 22.3133 18.6754 21.9383 17.4379C21.9758 17.4379 21.9758 17.4379 21.9383 17.4379ZM3.15078 20.4004V15.9004C3.15078 15.4879 3.45078 15.1504 3.82578 15.1504H6.63828C6.78828 15.1504 6.90078 15.2254 6.97578 15.2629C7.08828 15.3379 7.16328 15.4129 7.27578 15.4879V21.1504H3.90078C3.45078 21.1879 3.15078 20.8129 3.15078 20.4004ZM19.5383 19.5004L13.2383 21.4129C12.7508 21.5629 12.2633 21.6379 11.7008 21.6379C10.8383 21.6379 9.97578 21.4129 9.22578 21.0004L8.92578 20.8504V16.1254H12.4133C12.6758 16.1254 12.9008 16.2379 12.9383 16.3129C12.9758 16.3879 12.9008 16.7629 12.1883 17.4004C11.8883 17.6629 11.8508 18.1129 12.0383 18.4504C12.3758 19.0504 12.7508 18.9379 13.9508 18.6004C14.5133 18.4504 15.2633 18.2254 16.0133 18.0004C17.5133 17.5504 19.0133 17.1004 19.0133 17.1004C19.5758 16.9504 20.1383 17.2879 20.3633 17.9254C20.4758 18.4504 20.4383 19.1629 19.5383 19.5004Z" fill="#13C296"/>
<path d="M16.1253 12.3376V13.1251C16.1253 13.5751 16.5003 13.9876 16.9878 13.9876C17.4753 13.9876 17.8503 13.6126 17.8503 13.1251V7.05006C18.9003 6.97506 20.0628 6.41256 21.0003 5.47506C22.2753 4.20006 22.8378 2.58756 22.5003 1.35006C22.3503 1.05006 22.1253 0.825056 21.8628 0.750056C20.6253 0.375056 18.9753 0.975056 17.7378 2.25006C16.6878 3.30006 16.1253 4.57506 16.1628 5.70006V5.73756V7.46256C14.9253 6.26256 13.3503 5.73756 12.1128 6.07506C11.8128 6.15006 11.6253 6.37506 11.5128 6.63756C11.1378 7.87506 11.7378 9.52506 13.0128 10.7626C13.9503 11.7376 15.0753 12.2626 16.1253 12.3376ZM18.9003 3.45006C19.5378 2.81256 20.2503 2.47506 20.8128 2.36256C20.7378 2.92506 20.4003 3.63756 19.7253 4.27506C19.0878 4.91256 18.3753 5.25006 17.8128 5.36256C17.9253 4.80006 18.2628 4.08756 18.9003 3.45006ZM15.0378 8.73756C15.6753 9.37506 16.0128 10.0876 16.1253 10.6501C15.5628 10.5751 14.8503 10.2376 14.2128 9.56256C13.5753 8.92506 13.2378 8.21256 13.1253 7.65006C13.6878 7.76256 14.4003 8.10006 15.0378 8.73756Z" fill="#13C296"/>
</svg>
