<svg width="24" height="16" viewBox="0 0 24 16" fill="none" xmlns="http://www.w3.org/2000/svg">
<path d="M22.3508 5.90039C22.9133 5.86289 23.3633 5.41289 23.3633 4.81289V2.75039C23.3633 1.47539 22.3508 0.462891 21.0758 0.462891H2.96328C1.68828 0.462891 0.675781 1.47539 0.675781 2.75039V4.85039C0.675781 5.41289 1.12578 5.90039 1.68828 5.93789C2.73828 6.05039 3.52578 6.95039 3.52578 8.03789C3.52578 9.12539 2.73828 10.0254 1.68828 10.1004C1.12578 10.1379 0.675781 10.6254 0.675781 11.1879V13.2504C0.675781 14.5254 1.68828 15.5379 2.96328 15.5379H21.0758C22.3508 15.5379 23.3633 14.5254 23.3633 13.2504V11.1879C23.3633 10.6254 22.9133 10.1379 22.3508 10.1004C21.3008 9.98789 20.5133 9.08789 20.5133 8.00039C20.5133 6.87539 21.3008 5.97539 22.3508 5.90039ZM21.6758 11.6754V13.2504C21.6758 13.5879 21.4133 13.8504 21.0758 13.8504H11.8883V11.8254C11.8883 11.3754 11.5133 10.9629 11.0258 10.9629C10.5383 10.9629 10.1633 11.3379 10.1633 11.8254V13.8504H2.96328C2.62578 13.8504 2.36328 13.5879 2.36328 13.2504V11.7504C4.01328 11.3754 5.21328 9.87539 5.21328 8.07539C5.21328 6.31289 4.01328 4.77539 2.36328 4.36289V2.75039C2.36328 2.41289 2.62578 2.15039 2.96328 2.15039H10.2008V4.17539C10.2008 4.62539 10.5758 5.03789 11.0633 5.03789C11.5508 5.03789 11.9258 4.66289 11.9258 4.17539V2.15039H21.0758C21.4133 2.15039 21.6758 2.41289 21.6758 2.75039V4.28789C20.0258 4.70039 18.8258 6.20039 18.8258 8.00039C18.8258 9.76289 20.0258 11.2629 21.6758 11.6754Z" fill="#9B51E0"/>
<path d="M11.0617 6.2002C10.6117 6.2002 10.1992 6.5752 10.1992 7.0627V8.97519C10.1992 9.42519 10.5742 9.8377 11.0617 9.8377C11.5492 9.8377 11.9242 9.46269 11.9242 8.97519V7.0627C11.8867 6.5752 11.5117 6.2002 11.0617 6.2002Z" fill="#9B51E0"/>
</svg>
