<svg width="24" height="24" viewBox="0 0 24 24" fill="none" xmlns="http://www.w3.org/2000/svg">
<path d="M16.9532 10.2747C17.4032 10.2747 17.7782 9.89968 17.7782 9.44968C17.7782 8.99968 17.4407 8.58718 16.9532 8.58718L15.3407 8.51218L14.7782 7.08718C14.6282 6.63718 14.1407 6.44968 13.6907 6.59968C13.2407 6.74968 13.0532 7.27468 13.2032 7.68718L13.9532 9.63718C14.0657 9.93718 14.3657 10.1622 14.7032 10.1622L16.9532 10.2747C16.9532 10.2747 16.9157 10.2747 16.9532 10.2747Z" fill="#3758F9"/>
<path d="M23.289 9.48696C23.1765 9.07446 22.8015 8.81196 22.389 8.81196L20.1765 8.73696C19.7265 8.69946 19.314 9.07446 19.314 9.56196C19.314 10.012 19.6515 10.4245 20.139 10.4245H20.4015L19.2765 11.287C18.9015 11.5495 18.8265 12.112 19.1265 12.487C19.2765 12.712 19.539 12.8245 19.8015 12.8245C19.989 12.8245 20.139 12.787 20.3265 12.637L23.0265 10.612C23.289 10.312 23.439 9.86196 23.289 9.48696Z" fill="#3758F9"/>
<path d="M17.2909 12.7122L15.9784 13.6872C15.7159 13.9122 15.5659 14.2497 15.6784 14.5872L16.1284 16.1622C16.2409 16.5372 16.5784 16.7622 16.9534 16.7622C17.0284 16.7622 17.1034 16.7622 17.1784 16.7247C17.6284 16.5747 17.8909 16.1247 17.7409 15.6747L17.4409 14.6622L18.3034 14.0247C18.6784 13.7622 18.7534 13.1997 18.4534 12.8247C18.1909 12.5247 17.6659 12.4497 17.2909 12.7122Z" fill="#3758F9"/>
<path d="M18.7506 19.0873C18.6381 18.6373 18.1506 18.3748 17.7006 18.5248C17.2506 18.6748 16.9881 19.1248 17.1381 19.5748L17.2131 19.8373L16.1631 19.1248C15.7881 18.8623 15.2631 18.9748 15.0006 19.3873C14.7381 19.7623 14.8506 20.2873 15.2631 20.5498L17.8881 22.2373C18.0381 22.3498 18.2256 22.3873 18.4131 22.3873C18.6381 22.3873 18.8256 22.3123 19.0131 22.1998C19.3506 21.9373 19.5006 21.5248 19.3506 21.1498L18.7506 19.0873Z" fill="#3758F9"/>
<path d="M14.2516 17.9248L12.4516 16.7623C12.4516 16.7623 12.4516 16.7623 12.4141 16.7623C12.3766 16.7248 12.3016 16.6873 12.2266 16.6873H12.1891C12.1141 16.6873 12.0391 16.6498 11.9641 16.6498H11.9266C11.8516 16.6498 11.8141 16.6498 11.7391 16.6873H11.7016C11.6266 16.7248 11.5516 16.7248 11.5141 16.7623L6.75156 19.7998L8.32656 14.6248C8.43906 14.2873 8.28906 13.9123 8.02656 13.7248L3.63906 10.4248L9.26406 10.1998C9.60156 10.1998 9.90156 9.97481 10.0141 9.67481L12.0016 4.5373L12.1891 5.0623C12.3016 5.3998 12.6391 5.5873 12.9766 5.5873C13.0891 5.5873 13.1641 5.5873 13.2766 5.5123C13.7266 5.3623 13.9141 4.83731 13.7641 4.4248L12.9391 2.2498C12.7891 1.8748 12.4141 1.6123 12.0016 1.6123C11.5891 1.6123 11.2141 1.8748 11.0641 2.2498L8.62656 8.54981L1.61406 8.81231C1.20156 8.81231 0.826563 9.11231 0.714063 9.48731C0.601562 9.86231 0.714062 10.3123 1.05156 10.5748L6.56406 14.7373L4.68906 21.1498C4.57656 21.5623 4.72656 21.9748 5.02656 22.1998C5.21406 22.3498 5.40156 22.3873 5.62656 22.3873C5.81406 22.3873 6.00156 22.3498 6.15156 22.2373L12.0016 18.4873L13.3516 19.3498C13.5016 19.4248 13.6516 19.4998 13.8016 19.4998C14.0641 19.4998 14.3641 19.3498 14.5141 19.1248C14.7766 18.7123 14.6641 18.1873 14.2516 17.9248Z" fill="#3758F9"/>
</svg>
